<svg width="38" height="32" viewBox="0 0 38 32" fill="none" xmlns="http://www.w3.org/2000/svg">
<g id="Group 133">
<g id="&#240;&#159;&#166;&#134; icon &#34;call&#34;">
<path id="Vector" d="M30.0407 31.9997C28.4069 31.9997 26.1118 31.4954 22.675 29.8568C18.4957 27.8568 15.2632 26.0104 11.1065 22.4725C7.0989 19.0546 5.14865 16.8417 2.41913 12.6031C-0.664441 7.81729 -0.138794 5.30869 0.448792 4.23653C1.14854 2.95509 2.18142 2.18865 3.51646 1.42793C4.27476 1.00395 5.07722 0.6405 5.91368 0.342198C5.99738 0.311484 6.07523 0.282198 6.1447 0.255769C6.55902 0.0964813 7.18679 -0.144236 7.98195 0.11291C8.51262 0.282912 8.98637 0.630773 9.72797 1.25578C11.2488 2.5358 13.3271 5.38654 14.0939 6.78656C14.6086 7.73014 14.9493 8.35301 14.9501 9.05159C14.9501 9.86946 14.468 10.5002 13.8829 11.1809C13.7733 11.3088 13.6645 11.4309 13.559 11.5495C12.922 12.2638 12.7822 12.4702 12.8743 12.8388C13.061 13.5795 14.4529 15.7845 16.7405 17.7324C19.0281 19.6803 21.5375 20.7932 22.4088 20.9517C22.8591 21.0339 23.106 20.9096 23.9698 20.3467C24.0937 20.266 24.2209 20.1824 24.354 20.0989C25.2463 19.5324 25.951 19.1317 26.8868 19.1317H26.8919C27.7063 19.1317 28.4035 19.4331 29.5586 19.9303C31.0652 20.5789 34.5062 22.3296 36.0154 23.6289C36.7494 24.2603 37.1587 24.6632 37.3588 25.1154C37.6601 25.7961 37.3763 26.3297 37.1914 26.6868C37.1604 26.7461 37.1261 26.8111 37.0901 26.8832C36.7378 27.5958 36.3094 28.2791 35.8103 28.9247C34.9205 30.0604 34.0191 30.9397 32.5141 31.5376C31.7413 31.8495 30.8956 32.0075 30.0407 31.9997Z" fill="#ED1C24"/>
</g>
</g>
</svg>
