<svg width="45" height="51" viewBox="0 0 45 51" fill="none" xmlns="http://www.w3.org/2000/svg">
<path id="Vector" d="M22.0683 24.8625C23.4016 24.8625 24.5395 24.4269 25.482 23.5556C26.4245 22.6844 26.8957 21.6325 26.8957 20.4C26.8957 19.1675 26.4245 18.1156 25.482 17.2444C24.5395 16.3731 23.4016 15.9375 22.0683 15.9375C20.735 15.9375 19.5971 16.3731 18.6546 17.2444C17.7121 18.1156 17.2408 19.1675 17.2408 20.4C17.2408 21.6325 17.7121 22.6844 18.6546 23.5556C19.5971 24.4269 20.735 24.8625 22.0683 24.8625ZM22.0683 51C14.6662 45.1775 9.13764 39.7694 5.48259 34.7756C1.82753 29.7819 0 25.16 0 20.91C0 14.535 2.21832 9.45625 6.65496 5.67375C11.0916 1.89125 16.2294 0 22.0683 0C27.9072 0 33.0449 1.89125 37.4816 5.67375C41.9182 9.45625 44.1365 14.535 44.1365 20.91C44.1365 25.16 42.309 29.7819 38.654 34.7756C34.9989 39.7694 29.4703 45.1775 22.0683 51Z" fill="#ED1C24"/>
</svg>
